#!OML:ASF H:\Terrain\Patient Classification 1\Animal1\Tuesday\Animal1.ASF
:FULLY-SPECIFIED
:DEGREES
1716
root 15.0191 14.4362 -23.3332 18.6915 -25.0943 -5.19024
lowerback 3.75799 0.834693 1.3028
upperback -10.626 1.52373 2.97613
thorax -13.7509 0.760572 2.32125
lowerneck -15.2769 1.89411 -0.358217
upperneck 14.5323 2.21585 2.49156
head 6.92171 1.26819 1.09395
rclavicle -5.74488e-014 -7.15625e-015
rhumerus -48.2262 -23.6318 -60.8058
rradius 149.218
rwrist -56.6094
rhand -26.2716 41.6004
rfingers 7.12502
rthumb 0.28338 11.6208
lclavicle -5.74488e-014 -7.15625e-015
lhumerus -61.9625 23.3635 51.7837
lradius 147.463
lwrist 38.3834
lhand 18.2158 29.2596
lfingers 7.12502
lthumb 42.8695 53.5515
rfemur -40.0479 13.1654 34.1474
rtibia 59.6692
rfoot -25.7325 -32.286
rtoes 13.3097
lfemur -55.7051 -4.74029 8.76214
ltibia 50.0382
lfoot -17.1506 13.2737
ltoes -21.0689
1717
root 15.0122 14.4371 -23.349 18.7494 -25.2017 -5.16014
lowerback 3.68552 0.87064 1.14952
upperback -10.6164 1.55427 2.98112
thorax -13.6991 0.791972 2.40786
lowerneck -15.3924 1.85543 -0.483405
upperneck 14.4442 2.17095 2.61819
head 6.91066 1.25147 1.15125
rclavicle 6.49777e-014 5.32743e-014
rhumerus -48.2212 -23.1325 -60.7679
rradius 149.008
rwrist -56.0881
rhand -26.0366 41.7012
rfingers 7.12502
rthumb 0.510379 11.7221
lclavicle 6.49777e-014 5.32743e-014
lhumerus -61.8476 23.1184 51.924
lradius 147.334
lwrist 37.1981
lhand 17.7614 29.3707
lfingers 7.12502
lthumb 42.4442 53.8102
rfemur -40.186 13.2658 34.1212
rtibia 59.7054
rfoot -25.7162 -32.3186
rtoes 13.2266
lfemur -55.7484 -4.69689 8.80605
ltibia 49.9988
lfoot -17.2274 13.0388
ltoes -20.1241
1718
root 15.0054 14.441 -23.3624 18.6807 -25.2681 -5.12215
lowerback 3.76167 0.897641 1.03916
upperback -10.6045 1.58113 2.97192
thorax -13.7371 0.816375 2.45476
lowerneck -15.3964 1.817 -0.570279
upperneck 14.2955 2.12256 2.72467
head 6.8618 1.23273 1.19318
rclavicle -2.61153e-014 -2.90226e-014
rhumerus -48.3128 -22.6247 -60.6484
rradius 148.825
rwrist -55.3729
rhand -25.8788 41.9286
rfingers 7.12502
rthumb 0.662817 11.9499
lclavicle -2.61153e-014 -2.90226e-014
lhumerus -61.7827 22.9222 51.9759
lradius 147.324
lwrist 36.2975
lhand 17.8723 28.8947
lfingers 7.12502
lthumb 42.5481 53.2984
rfemur -40.1659 13.3339 34.1101
rtibia 59.7185
rfoot -25.7806 -32.2938
rtoes 13.3444
lfemur -55.6443 -4.72422 8.79936
ltibia 49.9483
lfoot -17.1568 13.0836
ltoes -21.0657
1719
root 15.001 14.4394 -23.3782 18.5997 -25.3488 -5.04473
lowerback 3.81414 0.920538 0.95474
upperback -10.5478 1.60018 2.93435
thorax -13.7038 0.831987 2.45598
lowerneck -15.4365 1.76934 -0.691829
upperneck 14.1019 2.06879 2.84181
head 6.80428 1.21051 1.24357
rclavicle -8.32411e-015 3.29983e-014
rhumerus -48.3053 -22.3745 -60.5664
rradius 148.812
rwrist -54.7318
rhand -25.8541 41.6583
rfingers 7.12502
rthumb 0.686621 11.6797
lclavicle -8.32411e-015 3.29983e-014
lhumerus -61.6606 22.8794 52.0177
lradius 147.363
lwrist 35.8534
lhand 17.9145 28.1079
lfingers 7.12502
lthumb 42.5875 52.498
rfemur -40.1581 13.3831 34.0545
rtibia 59.704
rfoot -25.9354 -32.2089
rtoes 13.3607
lfemur -55.5658 -4.75928 8.75072
ltibia 49.8977
lfoot -16.9735 13.3222
ltoes -22.545
1720
root 14.9953 14.4332 -23.396 18.6459 -25.4479 -5.12424
lowerback 3.80601 0.965799 0.963487
upperback -10.4756 1.65906 2.91272
thorax -13.6132 0.857517 2.41643
lowerneck -15.452 1.73316 -0.82092
upperneck 13.7682 2.01897 3.0554
head 6.69647 1.19783 1.32461
rclavicle -8.94531e-016 2.74323e-014
rhumerus -48.2727 -22.3901 -60.4337
rradius 148.877
rwrist -54.3774
rhand -25.9084 41.4225
rfingers 7.12502
rthumb 0.634244 11.4437
lclavicle -8.94531e-016 2.74323e-014
lhumerus -61.4634 22.9796 51.9077
lradius 147.518
lwrist 36.0946
lhand 17.8602 27.8411
lfingers 7.12502
lthumb 42.5367 52.2488
rfemur -40.2001 13.4698 34.1551
rtibia 59.6714
rfoot -25.8878 -32.2156
rtoes 13.0748
lfemur -55.5493 -4.65546 8.85728
ltibia 49.8627
lfoot -16.912 13.4097
ltoes -22.9913
1721
root 14.9905 14.4303 -23.4125 18.772 -25.4615 -5.40101
lowerback 3.83722 1.0104 1.14789
upperback -10.4251 1.74403 2.95131
thorax -13.5719 0.881195 2.34133
lowerneck -15.3932 1.68717 -0.881672
upperneck 13.4476 1.95599 3.17878
head 6.5827 1.17379 1.36322
rclavicle 5.87657e-014 4.49253e-014
rhumerus -48.3113 -22.553 -60.1176
rradius 148.945
rwrist -54.3947
rhand -25.7403 41.2952
rfingers 7.12502
rthumb 0.796526 11.317
lclavicle 5.87657e-014 4.49253e-014
lhumerus -61.2796 23.1412 51.6907
lradius 147.766
lwrist 36.8285
lhand 17.7421 28.0686
lfingers 7.12502
lthumb 42.4262 52.5143
rfemur -40.2094 13.5029 34.4637
rtibia 59.604
rfoot -25.5604 -32.015
rtoes 13.3698
lfemur -55.5154 -4.48952 9.1401
ltibia 49.8214
lfoot -16.9647 13.4205
ltoes -22.9616
1722
root 14.9889 14.4286 -23.4269 18.7792 -25.4513 -5.47901
lowerback 3.89226 1.04742 1.27166
upperback -10.3837 1.80386 2.90133
thorax -13.5529 0.893407 2.20626
lowerneck -15.4038 1.60693 -0.85781
upperneck 13.2807 1.83679 3.22928
head 6.53345 1.12134 1.36191
rclavicle 2.63887e-014 -3.18055e-015
rhumerus -48.3612 -22.8544 -59.9337
rradius 149.087
rwrist -54.6148
rhand -25.6782 40.7997
rfingers 7.12502
rthumb 0.856531 10.8217
lclavicle 2.63887e-014 -3.18055e-015
lhumerus -61.0011 23.2465 51.5736
lradius 147.94
lwrist 37.6113
lhand 18.204 27.8888
lfingers 7.12502
lthumb 42.8585 52.1845
rfemur -40.2154 13.3658 34.5808
rtibia 59.5507
rfoot -25.4965 -31.6621
rtoes 14.2015
lfemur -55.478 -4.48455 9.26655
ltibia 49.7499
lfoot -17.0354 13.3386
ltoes -22.4448
1723
root 14.9861 14.4314 -23.4401 18.7122 -25.4398 -5.42657
lowerback 3.93698 1.05778 1.34389
upperback -10.3562 1.81554 2.79573
thorax -13.541 0.884209 2.04657
lowerneck -15.3974 1.56501 -0.757471
upperneck 13.2005 1.75707 3.24052
head 6.50947 1.08856 1.34031
rclavicle -4.39066e-014 5.56597e-015
rhumerus -48.359 -23.0695 -60.0806
rradius 149.257
rwrist -54.8763
rhand -25.9205 40.4325
rfingers 7.12502
rthumb 0.622486 10.4536
lclavicle -4.39066e-014 5.56597e-015
lhumerus -60.7827 23.3857 51.4209
lradius 148.078
lwrist 38.3941
lhand 19.3894 27.6673
lfingers 7.12502
lthumb 43.9658 51.5629
rfemur -40.2016 13.2073 34.5879
rtibia 59.5148
rfoot -25.5271 -31.5859
rtoes 14.3098
lfemur -55.4278 -4.57294 9.28557
ltibia 49.6263
lfoot -16.9818 13.2988
ltoes -21.9786
1724
root 14.9811 14.4405 -23.4535 18.7109 -25.3852 -5.3816
lowerback 3.94676 0.995737 1.35013
upperback -10.4118 1.73337 2.80286
thorax -13.6112 0.84441 2.06479
lowerneck -15.1176 1.56293 -0.834536
upperneck 13.0814 1.76713 3.28346
head 6.42242 1.09078 1.36273
rclavicle -2.9445e-014 9.14409e-015
rhumerus -48.3344 -22.9331 -60.2326
rradius 149.386
rwrist -55.3305
rhand -26.0396 40.55
rfingers 7.12502
rthumb 0.507525 10.5708
lclavicle -2.9445e-014 9.14409e-015
lhumerus -61.0439 23.6032 51.1301
lradius 148.228
lwrist 39.1276
lhand 20.0331 27.789
lfingers 7.12502
lthumb 44.5659 51.4576
rfemur -40.2434 13.1239 34.6008
rtibia 59.4717
rfoot -25.2962 -31.7314
rtoes 13.9339
lfemur -55.4104 -4.6313 9.29992
ltibia 49.4651
lfoot -16.9739 13.3125
ltoes -21.379
1725
root 14.9763 14.4467 -23.4654 18.6357 -25.3439 -5.19686
lowerback 3.98163 0.917805 1.20247
upperback -10.4824 1.61502 2.81899
thorax -13.7192 0.80452 2.18508
lowerneck -14.8209 1.53706 -0.951937
upperneck 12.9999 1.76153 3.2698
head 6.34507 1.07866 1.37227
rclavicle -3.95333e-014 -1.82882e-014
rhumerus -48.322 -22.7984 -60.2656
rradius 149.442
rwrist -55.922
rhand -26.0002 41.0245
rfingers 7.12502
rthumb 0.545594 11.0455
lclavicle -3.95333e-014 -1.82882e-014
lhumerus -61.426 23.7833 50.9335
lradius 148.284
lwrist 39.5824
lhand 19.9197 27.8763
lfingers 7.12502
lthumb 44.4603 51.5854
rfemur -40.3019 13.0126 34.4724
rtibia 59.4443
rfoot -24.852 -32.1298
rtoes 12.5569
lfemur -55.3635 -4.72556 9.15954
ltibia 49.3009
lfoot -16.8523 13.5027
ltoes -22.0585
